<?xml version="1.0" encoding="utf-8"?>
<!-- Generator: Adobe Illustrator 17.1.0, SVG Export Plug-In . SVG Version: 6.00 Build 0)  -->
<!DOCTYPE svg PUBLIC "-//W3C//DTD SVG 1.1//EN" "http://www.w3.org/Graphics/SVG/1.1/DTD/svg11.dtd">
<svg version="1.1" id="Layer_1" xmlns="http://www.w3.org/2000/svg" xmlns:xlink="http://www.w3.org/1999/xlink" x="0px" y="0px"
	 viewBox="0 0 226.8 70.9" enable-background="new 0 0 226.8 70.9" xml:space="preserve">
<g>
	<path fill="none" d="M157.7,46.4c-0.6,0-1,0.2-1.3,0.7c-0.3,0.4-0.5,1.1-0.5,1.9c0,0.8,0.1,1.5,0.4,1.9s0.7,0.6,1.3,0.6
		c0.7,0,1.2-0.2,1.5-0.5c0.3-0.4,0.5-0.9,0.5-1.7v-0.3c0-0.9-0.2-1.5-0.5-1.9C158.9,46.6,158.4,46.4,157.7,46.4z"/>
	<path fill="none" d="M69.8,46.8c0.3-0.2,0.5-0.6,0.5-1.1c0-0.5-0.2-0.8-0.5-1c-0.3-0.2-0.9-0.3-1.6-0.3h-1.5v2.8h1.6
		C69,47.1,69.5,47,69.8,46.8z"/>
	<path fill="none" d="M169.9,49.4c-0.3,0.2-0.5,0.6-0.5,1c0,0.3,0.1,0.6,0.3,0.8s0.5,0.3,0.9,0.3c0.6,0,1.1-0.2,1.4-0.5
		c0.3-0.3,0.5-0.8,0.5-1.4V49l-1,0C170.8,49,170.2,49.2,169.9,49.4z"/>
	<path fill="none" d="M70,48.4c-0.4-0.3-0.9-0.4-1.6-0.4h-1.7v3.2h1.8c0.7,0,1.2-0.1,1.6-0.4c0.3-0.3,0.5-0.7,0.5-1.2
		C70.5,49.1,70.4,48.7,70,48.4z"/>
	<path fill="none" d="M150,46.4c-1.3,0-1.9,0.8-1.9,2.5c0,0.8,0.2,1.5,0.5,1.9s0.8,0.7,1.5,0.7c0.6,0,1.1-0.2,1.4-0.7
		s0.5-1.1,0.5-1.9s-0.2-1.5-0.5-1.9C151.1,46.6,150.6,46.4,150,46.4z"/>
	<path fill="none" d="M76.6,46.4c-1.3,0-1.9,0.8-1.9,2.5c0,0.8,0.2,1.5,0.5,1.9c0.3,0.4,0.8,0.7,1.5,0.7c0.6,0,1.1-0.2,1.4-0.7
		c0.3-0.4,0.5-1.1,0.5-1.9S78.4,47.4,78,47C77.7,46.6,77.2,46.4,76.6,46.4z"/>
	<path fill="none" d="M84.5,46.4c-1.3,0-1.9,0.8-1.9,2.5c0,0.8,0.2,1.5,0.5,1.9s0.8,0.7,1.5,0.7c0.6,0,1.1-0.2,1.4-0.7
		c0.3-0.4,0.5-1.1,0.5-1.9S86.3,47.4,86,47C85.6,46.6,85.1,46.4,84.5,46.4z"/>
	<path fill="none" d="M114.4,23.7c-0.6-0.6-1.3-1-2.4-1c-1,0-1.9,0.3-2.5,1c-0.6,0.7-1,1.6-1.1,2.8h6.8
		C115.3,25.3,115,24.4,114.4,23.7z"/>
	<path fill="none" d="M84.3,22.8c-2.6,0-3.9,1.7-3.9,5c0,1.7,0.3,2.9,1,3.8c0.7,0.9,1.6,1.3,2.9,1.3c1.3,0,2.2-0.4,2.9-1.3
		c0.7-0.9,1-2.1,1-3.8c0-1.7-0.3-2.9-1-3.8C86.6,23.2,85.6,22.8,84.3,22.8z"/>
	<path fill="none" d="M98.1,22.8c-1.1,0-2,0.4-2.6,1.3c-0.6,0.9-0.9,2.2-0.9,3.8c0,1.6,0.3,2.9,0.9,3.7c0.6,0.8,1.5,1.3,2.6,1.3
		c1.3,0,2.3-0.4,2.9-1.1c0.6-0.7,0.9-1.9,0.9-3.6v-0.4c0-1.8-0.3-3.2-0.9-4C100.4,23.2,99.4,22.8,98.1,22.8z"/>
	<path fill="none" d="M108,49.4c-0.3,0.2-0.5,0.6-0.5,1c0,0.3,0.1,0.6,0.3,0.8c0.2,0.2,0.5,0.3,0.9,0.3c0.6,0,1.1-0.2,1.4-0.5
		c0.3-0.3,0.5-0.8,0.5-1.4V49l-1,0C108.9,49,108.3,49.2,108,49.4z"/>
	<path fill="none" d="M138.1,44.7c-0.4-0.3-0.9-0.4-1.7-0.4h-1.1v3.5h0.9c0.9,0,1.5-0.1,1.9-0.4c0.4-0.3,0.6-0.7,0.6-1.4
		C138.6,45.4,138.4,45,138.1,44.7z"/>
	<path fill="none" d="M124.8,46.3c-0.6,0-1,0.2-1.3,0.7c-0.3,0.4-0.5,1.1-0.5,1.9c0,0.8,0.2,1.4,0.5,1.9s0.7,0.6,1.3,0.6
		c0.7,0,1.1-0.2,1.5-0.5c0.3-0.4,0.5-1,0.5-1.8v-0.2c0-0.9-0.2-1.6-0.5-2C125.9,46.5,125.4,46.3,124.8,46.3z"/>
	<path fill="none" d="M212.4,22.8c-1.1,0-2,0.4-2.6,1.3s-0.9,2.1-0.9,3.8c0,1.6,0.3,2.9,0.9,3.8c0.6,0.9,1.5,1.3,2.7,1.3
		c1.3,0,2.3-0.4,2.9-1.1c0.6-0.7,0.9-1.9,0.9-3.5v-0.5c0-1.8-0.3-3.1-0.9-3.9C214.7,23.2,213.7,22.8,212.4,22.8z"/>
	<path fill="none" d="M214.4,46.4c-0.6,0-1,0.2-1.3,0.7c-0.3,0.4-0.5,1.1-0.5,1.9c0,0.8,0.1,1.5,0.4,1.9s0.7,0.6,1.3,0.6
		c0.7,0,1.2-0.2,1.5-0.5c0.3-0.4,0.5-0.9,0.5-1.7v-0.3c0-0.9-0.2-1.5-0.5-1.9C215.5,46.6,215,46.4,214.4,46.4z"/>
	<polygon fill="#FFCD09" points="54.6,16.3 29.8,16.3 18.9,16.3 18.9,27.2 18.9,43.6 18.9,54.5 29.8,54.5 54.6,54.5 54.6,54.9 
		54.6,54.9 54.6,43.8 29.6,43.8 29.6,27.1 54.6,27.1 54.6,16 54.6,16 	"/>
	<polygon fill="#F58220" points="29.8,54.5 18.9,54.5 18.9,43.6 18.9,27.2 18.9,16.3 29.8,16.3 54.6,16.3 54.6,16 54.6,5.7 
		18.9,5.7 8.4,16.3 8.4,54.5 18.9,65.2 54.6,65.2 54.6,54.9 54.6,54.5 	"/>
	<path fill="white" d="M69.7,47.6L69.7,47.6c0.5-0.2,1-0.4,1.3-0.7c0.3-0.3,0.4-0.8,0.4-1.3c0-0.8-0.3-1.3-0.8-1.7s-1.4-0.5-2.6-0.5h-2.5v8.9h3.1
		c1,0,1.7-0.2,2.3-0.7c0.5-0.4,0.8-1.1,0.8-1.9c0-0.6-0.2-1.1-0.5-1.4C70.9,47.9,70.4,47.7,69.7,47.6z M66.7,44.3h1.5
		c0.7,0,1.3,0.1,1.6,0.3c0.3,0.2,0.5,0.6,0.5,1c0,0.5-0.2,0.9-0.5,1.1c-0.3,0.2-0.8,0.3-1.5,0.3h-1.6V44.3z M70,50.9
		c-0.3,0.3-0.9,0.4-1.6,0.4h-1.8v-3.2h1.7c0.7,0,1.3,0.1,1.6,0.4c0.4,0.3,0.5,0.6,0.5,1.2C70.5,50.2,70.4,50.6,70,50.9z"/>
	<path fill="white" d="M76.6,45.4c-1,0-1.7,0.3-2.3,0.9s-0.8,1.4-0.8,2.5c0,0.7,0.1,1.3,0.4,1.8c0.3,0.5,0.6,0.9,1.1,1.2c0.5,0.3,1,0.4,1.6,0.4
		c1,0,1.7-0.3,2.3-0.9s0.8-1.5,0.8-2.5c0-1.1-0.3-1.9-0.8-2.5S77.5,45.4,76.6,45.4z M78,50.8c-0.3,0.4-0.8,0.7-1.4,0.7
		c-0.6,0-1.1-0.2-1.5-0.7c-0.3-0.4-0.5-1.1-0.5-1.9c0-1.7,0.6-2.5,1.9-2.5c0.6,0,1.1,0.2,1.5,0.6c0.3,0.4,0.5,1.1,0.5,1.9
		S78.4,50.3,78,50.8z"/>
	<path fill="white" d="M84.5,45.4c-1,0-1.7,0.3-2.3,0.9c-0.5,0.6-0.8,1.4-0.8,2.5c0,0.7,0.1,1.3,0.4,1.8c0.3,0.5,0.6,0.9,1.1,1.2
		c0.5,0.3,1,0.4,1.6,0.4c1,0,1.7-0.3,2.3-0.9s0.8-1.5,0.8-2.5c0-1.1-0.3-1.9-0.8-2.5S85.5,45.4,84.5,45.4z M86,50.8
		c-0.3,0.4-0.8,0.7-1.4,0.7c-0.6,0-1.1-0.2-1.5-0.7s-0.5-1.1-0.5-1.9c0-1.7,0.6-2.5,1.9-2.5c0.6,0,1.1,0.2,1.5,0.6
		c0.3,0.4,0.5,1.1,0.5,1.9S86.3,50.3,86,50.8z"/>
	<polygon fill="white" points="95,45.6 93.7,45.6 91.6,47.8 91.2,48.3 90.8,48.8 90.8,48.8 90.8,47.7 90.8,42.8 89.7,42.8 89.7,52.2 90.8,52.2 
		90.8,49.8 91.6,49.1 93.9,52.2 95.2,52.2 92.3,48.4"/>
	<path fill="white" d="M100.3,49c-0.3-0.2-0.7-0.4-1.2-0.6c-0.7-0.3-1.2-0.5-1.4-0.7s-0.3-0.4-0.3-0.6c0-0.3,0.1-0.4,0.4-0.6
		c0.2-0.1,0.6-0.2,1-0.2c0.5,0,1.1,0.1,1.8,0.4l0.4-0.9c-0.7-0.3-1.4-0.4-2.1-0.4c-0.8,0-1.4,0.2-1.8,0.5c-0.4,0.3-0.7,0.7-0.7,1.3
		c0,0.3,0.1,0.6,0.2,0.8c0.1,0.2,0.3,0.4,0.6,0.6c0.3,0.2,0.7,0.4,1.3,0.6c0.6,0.2,1,0.4,1.3,0.6c0.2,0.2,0.4,0.4,0.4,0.7
		c0,0.3-0.1,0.5-0.4,0.7c-0.3,0.2-0.6,0.3-1.2,0.3c-0.7,0-1.4-0.2-2.1-0.5v1c0.5,0.3,1.2,0.4,2.1,0.4c0.8,0,1.5-0.2,2-0.5
		c0.5-0.3,0.7-0.8,0.7-1.4c0-0.3-0.1-0.6-0.2-0.8C100.8,49.4,100.6,49.2,100.3,49z"/>
	<path fill="white" d="M109.3,45.5c-0.4,0-0.8,0.1-1.2,0.2c-0.4,0.1-0.8,0.2-1.1,0.4l0.3,0.8c0.3-0.1,0.6-0.2,0.9-0.4c0.3-0.1,0.6-0.2,1-0.2
		c0.5,0,0.8,0.1,1,0.4c0.2,0.2,0.3,0.6,0.3,1.1v0.4l-1.1,0c-2.1,0.1-3.2,0.8-3.2,2.1c0,0.6,0.2,1.1,0.6,1.5c0.4,0.3,0.9,0.5,1.5,0.5
		c0.5,0,0.9-0.1,1.2-0.2s0.7-0.4,1-0.8h0l0.2,0.9h0.8v-4.5c0-0.8-0.2-1.3-0.6-1.7C110.7,45.6,110.1,45.5,109.3,45.5z M110.6,49.6
		c0,0.6-0.2,1.1-0.5,1.4c-0.3,0.3-0.8,0.5-1.4,0.5c-0.4,0-0.7-0.1-0.9-0.3c-0.2-0.2-0.3-0.5-0.3-0.8c0-0.5,0.2-0.8,0.5-1
		c0.3-0.2,0.9-0.3,1.7-0.4l1,0V49.6z"/>
	<path fill="white" d="M117.4,45.4c-0.4,0-0.9,0.1-1.2,0.3c-0.4,0.2-0.7,0.4-0.9,0.8h-0.1l-0.2-0.9h-0.9v6.7h1.1v-3.4c0-0.9,0.2-1.5,0.5-1.8
		c0.3-0.4,0.8-0.6,1.5-0.6c0.5,0,0.9,0.1,1.1,0.4s0.4,0.7,0.4,1.2v4.3h1.1v-4.3c0-0.8-0.2-1.5-0.6-1.8
		C118.8,45.6,118.2,45.4,117.4,45.4z"/>
	<path fill="white" d="M126.7,45.4c0,0.1,0,0.2,0,0.5s0,0.4,0,0.5h-0.1c-0.5-0.7-1.2-1-2.1-1c-0.9,0-1.5,0.3-2,0.9c-0.5,0.6-0.7,1.5-0.7,2.5
		c0,1.1,0.2,1.9,0.7,2.5c0.5,0.6,1.1,0.9,2,0.9c0.9,0,1.6-0.3,2.1-1h0l0.2,0.9h0.9v-9.4h-1.1V45.4z M126.7,49.1
		c0,0.8-0.2,1.4-0.5,1.8c-0.3,0.4-0.8,0.5-1.5,0.5c-0.6,0-1-0.2-1.3-0.6s-0.5-1-0.5-1.9c0-0.8,0.2-1.5,0.5-1.9
		c0.3-0.4,0.7-0.7,1.3-0.7c0.7,0,1.1,0.2,1.5,0.6c0.3,0.4,0.5,1.1,0.5,2V49.1z"/>
	<path fill="white" d="M136.5,43.4h-2.3v8.9h1.1v-3.4h1c1.1,0,2-0.2,2.6-0.7c0.6-0.5,0.9-1.2,0.9-2.1C139.8,44.2,138.7,43.4,136.5,43.4z
		 M138,47.4c-0.4,0.3-1,0.4-1.9,0.4h-0.9v-3.5h1.1c0.8,0,1.4,0.1,1.7,0.4c0.4,0.3,0.6,0.7,0.6,1.3C138.6,46.6,138.4,47.1,138,47.4z"
		/>
	<path fill="white" d="M143.9,45.8c-0.3,0.2-0.6,0.6-0.9,1h0l-0.1-1.2h-0.9v6.7h1.1v-3.5c0-0.4,0.1-0.8,0.3-1.1c0.2-0.3,0.4-0.6,0.7-0.8
		c0.3-0.2,0.6-0.3,1-0.3c0.2,0,0.5,0,0.7,0.1l0.1-1c-0.2,0-0.5-0.1-0.8-0.1C144.6,45.4,144.2,45.6,143.9,45.8z"/>
	<path fill="white" d="M150,45.4c-1,0-1.7,0.3-2.3,0.9s-0.8,1.4-0.8,2.5c0,0.7,0.1,1.3,0.4,1.8c0.3,0.5,0.6,0.9,1.1,1.2c0.5,0.3,1,0.4,1.6,0.4
		c1,0,1.7-0.3,2.3-0.9s0.8-1.5,0.8-2.5c0-1.1-0.3-1.9-0.8-2.5C151.7,45.8,151,45.4,150,45.4z M151.5,50.8c-0.3,0.4-0.8,0.7-1.4,0.7
		c-0.6,0-1.1-0.2-1.5-0.7s-0.5-1.1-0.5-1.9c0-1.7,0.6-2.5,1.9-2.5c0.6,0,1.1,0.2,1.5,0.6c0.3,0.4,0.5,1.1,0.5,1.9
		S151.8,50.3,151.5,50.8z"/>
	<path fill="white" d="M159.7,46.4L159.7,46.4c-0.6-0.7-1.2-1-2.2-1c-0.8,0-1.5,0.3-2,0.9c-0.5,0.6-0.7,1.5-0.7,2.5c0,1.1,0.2,1.9,0.7,2.5
		c0.5,0.6,1.2,0.9,2,0.9c0.9,0,1.6-0.3,2.1-1h0l0,0.8v0.3c0,0.6-0.2,1-0.5,1.4s-0.8,0.5-1.3,0.5c-1,0-1.8-0.2-2.5-0.5v1
		c0.6,0.3,1.4,0.4,2.4,0.4c1,0,1.8-0.2,2.3-0.7c0.5-0.5,0.7-1.2,0.7-2.2v-6.8h-0.9L159.7,46.4z M159.7,49.2c0,0.8-0.2,1.4-0.5,1.7
		c-0.3,0.4-0.8,0.5-1.5,0.5c-0.6,0-1-0.2-1.3-0.6s-0.4-1.1-0.4-1.9c0-0.8,0.2-1.5,0.5-1.9c0.3-0.4,0.7-0.7,1.3-0.7
		c0.7,0,1.2,0.2,1.5,0.6c0.3,0.4,0.5,1,0.5,1.9V49.2z"/>
	<path fill="white" d="M165.3,45.8c-0.3,0.2-0.6,0.6-0.9,1h0l-0.1-1.2h-0.9v6.7h1.1v-3.5c0-0.4,0.1-0.8,0.3-1.1c0.2-0.3,0.4-0.6,0.7-0.8
		c0.3-0.2,0.6-0.3,1-0.3c0.2,0,0.5,0,0.7,0.1l0.1-1c-0.2,0-0.5-0.1-0.8-0.1C166,45.4,165.6,45.6,165.3,45.8z"/>
	<path fill="white" d="M171.2,45.5c-0.4,0-0.8,0.1-1.2,0.2c-0.4,0.1-0.8,0.2-1.1,0.4l0.3,0.8c0.3-0.1,0.6-0.2,0.9-0.4s0.6-0.2,1-0.2
		c0.5,0,0.8,0.1,1,0.4c0.2,0.2,0.3,0.6,0.3,1.1v0.4l-1.1,0c-2.1,0.1-3.2,0.8-3.2,2.1c0,0.6,0.2,1.1,0.6,1.5c0.4,0.3,0.9,0.5,1.5,0.5
		c0.5,0,0.9-0.1,1.2-0.2s0.7-0.4,1-0.8h0l0.2,0.9h0.8v-4.5c0-0.8-0.2-1.3-0.6-1.7C172.6,45.6,172,45.5,171.2,45.5z M172.5,49.6
		c0,0.6-0.2,1.1-0.5,1.4c-0.3,0.3-0.8,0.5-1.4,0.5c-0.4,0-0.7-0.1-0.9-0.3s-0.3-0.5-0.3-0.8c0-0.5,0.2-0.8,0.5-1
		c0.3-0.2,0.9-0.3,1.7-0.4l1,0V49.6z"/>
	<path fill="white" d="M183.4,45.4c-0.5,0-0.9,0.1-1.3,0.3c-0.4,0.2-0.7,0.5-0.9,0.8h-0.1c-0.3-0.7-1-1.1-2-1.1c-0.4,0-0.8,0.1-1.2,0.3
		c-0.3,0.2-0.6,0.4-0.8,0.8h-0.1l-0.2-0.9h-0.9v6.7h1.1v-3.4c0-0.9,0.1-1.5,0.4-1.8s0.7-0.6,1.3-0.6c0.5,0,0.8,0.1,1,0.4
		c0.2,0.3,0.3,0.7,0.3,1.2v4.3h1.1v-3.7c0-0.7,0.1-1.3,0.4-1.6c0.3-0.4,0.7-0.5,1.4-0.5c0.9,0,1.4,0.5,1.4,1.6v4.3h1.1v-4.3
		c0-0.9-0.2-1.5-0.6-1.9C184.7,45.6,184.1,45.4,183.4,45.4z"/>
	<path fill="white" d="M195.4,45.4c-0.5,0-0.9,0.1-1.3,0.3c-0.4,0.2-0.7,0.5-0.9,0.8h-0.1c-0.3-0.7-1-1.1-2-1.1c-0.4,0-0.8,0.1-1.2,0.3
		s-0.6,0.4-0.8,0.8h-0.1l-0.2-0.9h-0.9v6.7h1.1v-3.4c0-0.9,0.1-1.5,0.4-1.8s0.7-0.6,1.3-0.6c0.5,0,0.8,0.1,1,0.4
		c0.2,0.3,0.3,0.7,0.3,1.2v4.3h1.1v-3.7c0-0.7,0.1-1.3,0.4-1.6c0.3-0.4,0.7-0.5,1.4-0.5c0.9,0,1.4,0.5,1.4,1.6v4.3h1.1v-4.3
		c0-0.9-0.2-1.5-0.6-1.9C196.7,45.6,196.2,45.4,195.4,45.4z"/>
	<rect fill="white" x="200.1" y="45.6" width="1.1" height="6.7"/>
	<path fill="white" d="M200.7,43.1c-0.2,0-0.3,0.1-0.5,0.2c-0.1,0.1-0.2,0.3-0.2,0.5c0,0.2,0.1,0.4,0.2,0.5c0.1,0.1,0.3,0.2,0.5,0.2
		c0.2,0,0.3-0.1,0.4-0.2c0.1-0.1,0.2-0.3,0.2-0.5c0-0.2-0.1-0.4-0.2-0.5C201,43.1,200.9,43.1,200.7,43.1z"/>
	<path fill="white" d="M207,45.4c-0.4,0-0.9,0.1-1.2,0.3s-0.7,0.4-0.9,0.8h-0.1l-0.2-0.9h-0.9v6.7h1.1v-3.4c0-0.9,0.2-1.5,0.5-1.8
		s0.8-0.6,1.5-0.6c0.5,0,0.9,0.1,1.1,0.4s0.4,0.7,0.4,1.2v4.3h1.1v-4.3c0-0.8-0.2-1.5-0.6-1.8C208.4,45.6,207.8,45.4,207,45.4z"/>
	<path fill="white" d="M216.4,46.4L216.4,46.4c-0.6-0.7-1.2-1-2.2-1c-0.8,0-1.5,0.3-2,0.9c-0.5,0.6-0.7,1.5-0.7,2.5c0,1.1,0.2,1.9,0.7,2.5
		c0.5,0.6,1.2,0.9,2,0.9c0.9,0,1.6-0.3,2.1-1h0l0,0.8v0.3c0,0.6-0.2,1-0.5,1.4s-0.8,0.5-1.3,0.5c-1,0-1.8-0.2-2.5-0.5v1
		c0.6,0.3,1.4,0.4,2.4,0.4c1,0,1.8-0.2,2.3-0.7c0.5-0.5,0.7-1.2,0.7-2.2v-6.8h-0.9L216.4,46.4z M216.3,49.2c0,0.8-0.2,1.4-0.5,1.7
		c-0.3,0.4-0.8,0.5-1.5,0.5c-0.6,0-1-0.2-1.3-0.6s-0.4-1.1-0.4-1.9c0-0.8,0.2-1.5,0.5-1.9c0.3-0.4,0.7-0.7,1.3-0.7
		c0.7,0,1.2,0.2,1.5,0.6c0.3,0.4,0.5,1,0.5,1.9V49.2z"/>
	<path fill="white" d="M76.7,34v-1.9c-1.6,0.5-3,0.7-4.3,0.7c-2,0-3.5-0.6-4.5-1.9c-1.1-1.2-1.6-3-1.6-5.3c0-2.2,0.5-4,1.6-5.2
		c1.1-1.3,2.6-1.9,4.5-1.9c1.3,0,2.6,0.3,4,1l0.9-1.9c-1.4-0.7-3-1-4.9-1c-1.7,0-3.3,0.4-4.5,1.1c-1.3,0.7-2.3,1.8-2.9,3.2
		c-0.7,1.4-1,3-1,4.8c0,2.9,0.7,5.2,2.1,6.7c1.4,1.6,3.4,2.4,6,2.4c0.9,0,1.7-0.1,2.4-0.2C75.2,34.5,75.9,34.3,76.7,34z"/>
	<path fill="white" d="M88.8,22.8c-1.1-1.2-2.6-1.8-4.5-1.8c-2,0-3.5,0.6-4.6,1.8c-1.1,1.2-1.6,2.9-1.6,5.1c0,1.4,0.3,2.6,0.8,3.7
		c0.5,1.1,1.2,1.9,2.1,2.4c0.9,0.6,2,0.8,3.2,0.8c1.9,0,3.5-0.6,4.6-1.8c1.1-1.2,1.6-2.9,1.6-5.1C90.5,25.7,89.9,24.1,88.8,22.8z
		 M87.2,31.7c-0.7,0.9-1.6,1.3-2.9,1.3c-1.3,0-2.3-0.4-2.9-1.3c-0.7-0.9-1-2.1-1-3.8c0-3.4,1.3-5,3.9-5c1.3,0,2.3,0.4,2.9,1.3
		c0.7,0.8,1,2.1,1,3.8C88.2,29.5,87.9,30.8,87.2,31.7z"/>
	<path fill="white" d="M101.9,21c0,0.2,0,0.5,0.1,1c0,0.5,0.1,0.8,0.1,1h-0.2c-1-1.3-2.3-2-4.1-2c-1.7,0-3.1,0.6-4,1.8c-1,1.2-1.4,2.9-1.4,5.1
		c0,2.2,0.5,3.9,1.4,5.1c1,1.2,2.3,1.8,4,1.8c1.8,0,3.2-0.7,4.1-2h0.1l0.3,1.8h1.8V15.7h-2.2V21z M101.9,28.3c0,1.6-0.3,2.8-0.9,3.6
		c-0.6,0.7-1.6,1.1-2.9,1.1c-1.1,0-2-0.4-2.6-1.3c-0.6-0.8-0.9-2.1-0.9-3.7c0-1.7,0.3-2.9,0.9-3.8c0.6-0.9,1.5-1.3,2.6-1.3
		c1.3,0,2.3,0.4,2.9,1.2c0.6,0.8,0.9,2.1,0.9,4V28.3z"/>
	<path fill="white" d="M117,33.9V32c-0.9,0.4-1.6,0.6-2.2,0.7c-0.6,0.1-1.3,0.2-2,0.2c-1.3,0-2.4-0.4-3.1-1.2c-0.7-0.8-1.1-1.9-1.2-3.4h9.1V27
		c0-1.8-0.5-3.3-1.5-4.4c-1-1.1-2.3-1.6-4-1.6c-1.8,0-3.2,0.6-4.3,1.9c-1.1,1.3-1.6,3-1.6,5.1c0,2.1,0.6,3.8,1.7,5
		c1.1,1.2,2.7,1.8,4.7,1.8c0.9,0,1.6-0.1,2.3-0.2C115.6,34.4,116.2,34.2,117,33.9z M109.6,23.8c0.6-0.7,1.4-1,2.5-1
		c1,0,1.8,0.3,2.4,1c0.6,0.6,0.8,1.6,0.9,2.8h-6.8C108.6,25.4,109,24.4,109.6,23.8z"/>
	<path fill="white" d="M136.4,34v-1.9c-1.6,0.5-3,0.7-4.3,0.7c-2,0-3.5-0.6-4.5-1.9c-1.1-1.2-1.6-3-1.6-5.3c0-2.2,0.5-4,1.6-5.2
		c1.1-1.3,2.6-1.9,4.5-1.9c1.3,0,2.6,0.3,4,1l0.9-1.9c-1.4-0.7-3-1-4.9-1c-1.7,0-3.3,0.4-4.5,1.1c-1.3,0.7-2.3,1.8-2.9,3.2
		c-0.7,1.4-1,3-1,4.8c0,2.9,0.7,5.2,2.1,6.7c1.4,1.6,3.4,2.4,6,2.4c0.9,0,1.7-0.1,2.4-0.2C134.9,34.5,135.6,34.3,136.4,34z"/>
	<path fill="white" d="M143,21.7c-0.7,0.5-1.3,1.1-1.8,2h-0.1l-0.2-2.4h-1.8v13.3h2.2v-7.1c0-0.8,0.2-1.6,0.5-2.3c0.3-0.7,0.8-1.2,1.4-1.6
		s1.3-0.6,2-0.6c0.5,0,0.9,0.1,1.4,0.2l0.3-2c-0.5-0.1-1-0.1-1.6-0.1C144.4,21,143.7,21.2,143,21.7z"/>
	<path fill="white" d="M157.8,32.8h0.1l0.3,1.8h1.8V21.2h-2.2v6.9c0,1.7-0.3,2.9-0.9,3.7c-0.6,0.8-1.6,1.1-3,1.1c-1,0-1.8-0.3-2.2-0.8
		c-0.5-0.5-0.7-1.3-0.7-2.4v-8.6h-2.2v8.7c0,1.7,0.4,2.9,1.2,3.7c0.8,0.8,2,1.2,3.6,1.2c1,0,1.8-0.2,2.5-0.5
		C156.8,33.9,157.4,33.4,157.8,32.8z"/>
	<path fill="white" d="M168.7,32.5c-0.5,0.4-1.3,0.5-2.4,0.5c-1.4,0-2.8-0.4-4.2-1.1v2c1,0.6,2.4,0.8,4.2,0.8c1.7,0,3-0.3,3.9-1
		c0.9-0.7,1.4-1.6,1.4-2.9c0-0.6-0.1-1.2-0.4-1.6c-0.3-0.4-0.6-0.8-1.2-1.2c-0.5-0.4-1.3-0.7-2.5-1.2c-1.5-0.6-2.4-1-2.8-1.3
		c-0.4-0.3-0.6-0.7-0.6-1.2c0-0.5,0.2-0.9,0.7-1.2c0.5-0.3,1.2-0.4,2.1-0.4c1.1,0,2.3,0.3,3.6,0.8l0.7-1.7c-1.3-0.6-2.7-0.9-4.2-0.9
		c-1.6,0-2.8,0.3-3.7,0.9c-0.9,0.6-1.3,1.5-1.3,2.6c0,0.6,0.1,1.1,0.4,1.6c0.2,0.4,0.6,0.8,1.1,1.2c0.5,0.3,1.4,0.8,2.6,1.2
		c1.2,0.5,2.1,0.9,2.6,1.2c0.5,0.4,0.7,0.8,0.7,1.3C169.4,31.6,169.2,32.1,168.7,32.5z"/>
	<path fill="white" d="M179.5,22.8c1,0,1.8,0.3,2.3,0.8c0.5,0.5,0.7,1.3,0.7,2.4v8.5h2.2v-8.7c0-1.7-0.4-2.9-1.2-3.7c-0.8-0.8-2-1.2-3.6-1.2
		c-0.9,0-1.7,0.2-2.5,0.5s-1.3,0.9-1.7,1.5h-0.1c0.1-0.5,0.1-1.1,0.1-1.9v-5.5h-2.2v18.9h2.2v-6.9c0-1.7,0.3-3,0.9-3.7
		C177.1,23.2,178.1,22.8,179.5,22.8z"/>
	<rect fill="white" x="187.8" y="21.2" width="2.2" height="13.3"/>
	<path fill="white" d="M189,19c0.3,0,0.6-0.1,0.9-0.3c0.3-0.2,0.4-0.6,0.4-1.1c0-0.5-0.1-0.8-0.4-1.1c-0.3-0.2-0.6-0.3-0.9-0.3
		c-0.4,0-0.7,0.1-0.9,0.3c-0.2,0.2-0.4,0.6-0.4,1.1c0,0.5,0.1,0.8,0.4,1.1C188.3,18.9,188.6,19,189,19z"/>
	<path fill="white" d="M204.6,34.5v-8.7c0-1.7-0.4-2.9-1.2-3.7c-0.8-0.8-2-1.2-3.6-1.2c-0.9,0-1.7,0.2-2.5,0.5c-0.7,0.4-1.3,0.9-1.7,1.5h-0.1
		l-0.3-1.8h-1.8v13.3h2.2v-6.9c0-1.7,0.3-2.9,0.9-3.7c0.6-0.8,1.6-1.1,3-1.1c1,0,1.8,0.3,2.3,0.8c0.5,0.5,0.7,1.3,0.7,2.4v8.5H204.6
		z"/>
	<path fill="white" d="M216.7,21.2l-0.3,1.8h-0.1c-1-1.3-2.4-2-4.2-2c-1.7,0-3,0.6-4,1.9c-1,1.2-1.5,2.9-1.5,5.1c0,2.2,0.5,3.9,1.4,5.1
		c1,1.2,2.3,1.8,4,1.8c1.8,0,3.2-0.7,4.1-2h0.1l-0.1,1.6v0.5c0,1.2-0.3,2.1-1,2.8c-0.7,0.7-1.6,1-2.7,1c-2,0-3.6-0.3-4.9-1v2
		c1.3,0.6,2.8,0.8,4.8,0.8c2,0,3.5-0.5,4.5-1.4c1-1,1.4-2.4,1.4-4.3V21.2H216.7z M216.3,28.4c0,1.6-0.3,2.8-0.9,3.5
		c-0.6,0.7-1.6,1.1-2.9,1.1c-1.2,0-2.1-0.4-2.7-1.3c-0.6-0.9-0.9-2.1-0.9-3.8c0-1.6,0.3-2.9,0.9-3.8s1.5-1.3,2.6-1.3
		c1.4,0,2.4,0.4,3,1.2c0.6,0.8,0.9,2.1,0.9,3.9V28.4z"/>
</g>
</svg>
